<svg width="121" height="32" viewBox="0 0 121 32" fill="none" xmlns="http://www.w3.org/2000/svg">
<path d="M63.8823 1.04166C63.8988 1.01215 63.9179 1.01215 63.9408 1.04166L63.9065 1.07117L63.8823 1.04166Z" fill="#C2C2C2"/>
<path d="M34.672 11.3452C35.0395 10.1731 35.3878 9.06528 35.7286 7.96689C35.7705 7.83278 35.8557 7.80194 35.9663 7.78048C37.8061 7.41837 39.6535 7.10991 41.5327 7.20781C42.8588 7.27353 44.1341 7.55919 45.2758 8.31022C46.8244 9.3268 47.5326 10.8584 47.6331 12.736C47.6916 13.8156 47.525 14.8818 47.3788 15.9386C47.0749 18.0924 46.7621 20.2436 46.4684 22.3975C46.4604 22.4878 46.4295 22.5742 46.379 22.6475C46.3284 22.7209 46.2601 22.7786 46.1811 22.8146C44.9834 23.5079 43.684 23.8875 42.349 24.1181C40.6968 24.4201 39.0117 24.4653 37.3471 24.2522C35.96 24.0685 34.6669 23.6139 33.66 22.5383C33.223 22.0663 32.8837 21.5036 32.6638 20.886C32.4438 20.2685 32.348 19.6094 32.3823 18.9506C32.4166 18.2919 32.5803 17.6479 32.8631 17.0594C33.1458 16.4709 33.5415 15.9509 34.0249 15.5322C35.0573 14.6363 36.2779 14.1911 37.5633 13.9027C39.5099 13.4682 41.4742 13.5272 43.4399 13.6855C43.6853 13.7043 43.7387 13.6251 43.7501 13.3945C43.8378 11.777 42.9173 10.6156 41.3013 10.3031C40.1799 10.0859 39.0788 10.2736 37.9778 10.4641C36.8543 10.6591 35.7484 10.9538 34.672 11.3452ZM41.548 16.2242C40.8482 16.2194 40.1493 16.2737 39.4577 16.3865C38.7101 16.5206 37.9841 16.7285 37.3815 17.2515C36.7 17.843 36.5182 18.6369 36.6529 19.5113C36.7801 20.3093 37.309 20.7465 37.9943 21.004C38.3084 21.1206 38.6352 21.1949 38.9669 21.2253C40.1926 21.35 41.3827 21.1247 42.5651 20.8163C42.6453 20.8051 42.7189 20.7633 42.7718 20.6988C42.8248 20.6343 42.8535 20.5516 42.8525 20.4662C43.0139 19.1989 43.1741 17.9302 43.3521 16.6655C43.3827 16.4469 43.314 16.4053 43.1411 16.3704C42.6144 16.2787 42.0818 16.2298 41.548 16.2242Z" fill="#C2C2C2"/>
<path d="M91.4346 20.179C91.2312 20.8308 91.0532 21.4142 90.865 21.9975C90.715 22.4763 90.5548 22.9511 90.4124 23.4339C90.3987 23.5078 90.3646 23.5758 90.3144 23.6292C90.2642 23.6827 90.2 23.7193 90.1301 23.7343C88.1848 24.2815 86.2141 24.5779 84.2052 24.311C81.9166 24.0066 80.0247 22.9699 78.8651 20.7557C78.1518 19.385 77.9255 17.8924 78.0221 16.3541C78.2065 13.4277 79.3622 11.0016 81.511 9.12271C82.8168 7.98006 84.3399 7.39265 86.0157 7.2183C87.1715 7.09894 88.3208 7.12174 89.4486 7.453C91.7448 8.12356 93.2757 10.0078 93.5694 12.5023C93.7385 13.936 93.5694 15.3442 93.3494 16.7537C93.3227 16.9294 93.2388 16.9348 93.1116 16.9348C92.495 16.9348 91.8771 16.9348 91.2604 16.9348C88.2937 16.9348 85.327 16.9348 82.3603 16.9348C82.1213 16.9348 82.0513 16.9965 82.0475 17.2553C82.0145 19.3636 83.1181 20.7557 85.0825 21.1111C86.5345 21.3793 87.947 21.1473 89.3571 20.8227C90.0622 20.6564 90.7562 20.4414 91.4346 20.179ZM86.2471 14.1975H89.0951C89.9648 14.1975 89.9648 14.1975 89.9941 13.2802C90.0538 11.4227 88.9769 10.2117 87.2261 10.1084C85.1321 9.98371 83.1575 11.5837 82.6489 13.9575C82.607 14.1546 82.6489 14.2029 82.8396 14.2016C83.9725 14.1922 85.1028 14.1975 86.2471 14.1975Z" fill="#C2C2C2"/>
<path d="M98.7451 24.3643C96.8782 24.3512 95.025 24.0253 93.255 23.3987C93.0783 23.3343 93.0313 23.2807 93.0948 23.0782C93.3856 22.1492 93.664 21.2158 93.9302 20.2779C93.9963 20.0472 94.0738 20.066 94.2493 20.1545C95.9493 21.0317 97.8694 21.3172 99.733 20.9699C100.17 20.8997 100.585 20.7204 100.943 20.4469C101.109 20.3257 101.247 20.1669 101.347 19.9821C101.447 19.7973 101.506 19.5912 101.52 19.379C101.535 19.1669 101.504 18.954 101.43 18.7561C101.356 18.5582 101.241 18.3802 101.093 18.2354C100.77 17.9198 100.408 17.6527 100.015 17.4414C99.0426 16.8674 98.0535 16.3297 97.1291 15.6645C94.646 13.8714 94.9486 10.139 97.3936 8.50151C98.4769 7.77597 99.6631 7.41252 100.923 7.27439C103.024 7.04506 105.054 7.42459 107.055 8.06028C107.238 8.11795 107.285 8.17026 107.215 8.37545C106.914 9.25657 106.623 10.143 106.35 11.0349C106.277 11.2696 106.191 11.2522 106.019 11.169C104.767 10.546 103.397 10.234 102.013 10.257C101.341 10.2745 100.687 10.3912 100.118 10.8096C99.8767 10.9721 99.6924 11.2138 99.5936 11.4975C99.4948 11.7812 99.4871 12.0912 99.5716 12.38C99.6811 12.7039 99.8878 12.9812 100.16 13.17C100.749 13.6367 101.423 13.9518 102.067 14.3247C102.856 14.759 103.609 15.2624 104.318 15.8294C106.413 17.5836 106.201 20.9257 104.191 22.6235C102.894 23.7166 101.376 24.1538 99.761 24.3093C99.3554 24.3469 98.9524 24.3536 98.7451 24.3643Z" fill="#C2C2C2"/>
<path d="M112.46 24.3637C110.618 24.3449 108.79 24.0223 107.042 23.4075C106.84 23.3364 106.788 23.2734 106.863 23.0481C107.151 22.1388 107.423 21.2241 107.687 20.3068C107.751 20.0842 107.814 20.052 108.02 20.1566C109.713 21.0256 111.622 21.3118 113.477 20.9747C113.875 20.9088 114.256 20.7592 114.597 20.5348C115.44 19.9675 115.543 18.9255 114.831 18.1959C114.533 17.9128 114.201 17.6717 113.843 17.4784C112.826 16.8695 111.77 16.325 110.812 15.6008C108.604 13.9177 108.878 10.872 110.229 9.34312C111.139 8.31448 112.288 7.76193 113.564 7.46554C115.256 7.06321 116.947 7.15977 118.637 7.48968C119.349 7.6238 120.045 7.82765 120.742 8.02613C120.974 8.09453 121.058 8.16695 120.96 8.44591C120.666 9.28679 120.399 10.1371 120.14 10.994C120.067 11.2287 119.995 11.2623 119.776 11.1617C118.541 10.55 117.191 10.2388 115.827 10.2511C115.191 10.2631 114.577 10.3624 114.023 10.7137C113.498 11.045 113.232 11.5265 113.311 12.189C113.36 12.6101 113.601 12.9038 113.903 13.1452C114.539 13.6535 115.27 13.9888 115.962 14.3911C116.75 14.8511 117.528 15.3299 118.216 15.9482C120.143 17.6916 119.926 20.9237 117.992 22.5867C116.953 23.4812 115.748 23.9453 114.447 24.1853C113.79 24.298 113.126 24.3576 112.46 24.3637Z" fill="#C2C2C2"/>
<path d="M62.0894 20.4152C62.0246 20.8176 61.8606 21.1783 61.7398 21.5579C61.5097 22.2807 61.2643 22.9969 61.0367 23.7211C61.02 23.7935 60.9819 23.8585 60.928 23.9067C60.8741 23.9549 60.8071 23.9838 60.7366 23.9893C59.2109 24.2575 57.6686 24.4279 56.1188 24.3045C53.806 24.1208 51.8226 23.2316 50.4596 21.1528C49.4984 19.6883 49.1589 18.024 49.2441 16.2712C49.3865 13.3475 50.5613 10.955 52.7265 9.12298C53.9675 8.07422 55.4271 7.55923 56.9821 7.34466C58.9069 7.05689 60.8669 7.18049 62.7455 7.7081C63.104 7.81136 63.4499 7.95621 63.8021 8.07691C63.9292 8.11982 63.9623 8.17749 63.9152 8.32367C63.6152 9.24905 63.3177 10.1771 63.0367 11.1092C62.9744 11.3144 62.8866 11.2728 62.7608 11.2205C61.863 10.8322 60.9124 10.5972 59.9445 10.5245C57.8505 10.3997 56.0298 11.0073 54.7227 12.8459C53.4983 14.5693 53.3089 17.4312 54.6197 19.1613C55.4347 20.2342 56.5104 20.8028 57.7869 20.9597C59.1639 21.1287 60.4951 20.8484 61.8097 20.4501C61.8936 20.4246 61.9788 20.4072 62.064 20.3857L62.0894 20.4152Z" fill="#C2C2C2"/>
<path d="M76.5839 20.3972C76.2915 21.285 75.9558 22.1634 75.7155 23.07C75.5413 23.7312 75.2476 24.0451 74.5636 24.1175C72.6564 24.3186 70.7493 24.544 68.8421 24.0115C65.8428 23.1706 63.8835 20.6466 63.7207 17.3662C63.5427 13.8015 64.8371 10.9529 67.5592 8.84601C68.7035 7.96221 70.0385 7.54377 71.432 7.35199C73.3564 7.06517 75.3157 7.1883 77.1942 7.7141C77.5426 7.81468 77.8769 7.96489 78.224 8.07084C78.4059 8.12716 78.411 8.21433 78.3512 8.38198C78.06 9.27919 77.7714 10.1764 77.5006 11.0803C77.4358 11.2963 77.3582 11.2882 77.1916 11.2212C75.8592 10.6847 74.4962 10.3937 73.0582 10.5506C70.6158 10.8269 68.7569 12.5301 68.2877 15.0367C67.9495 16.8459 68.2598 18.5008 69.6266 19.7816C70.7162 20.8009 72.0423 21.0852 73.4549 20.998C74.4514 20.9288 75.4361 20.7306 76.3868 20.4079C76.444 20.3972 76.4949 20.3476 76.5839 20.3972Z" fill="#C2C2C2"/>
<path d="M28.1471 16.7064L12.3088 0V2.56424L25.7161 16.7064L25.7212 16.7118L14.1079 28.9616L14.0939 28.9469L2.48821 16.7064L2.47804 16.6957L8.17536 10.6861H5.70241L0 16.701L0.00508588 16.7064L14.0888 31.5621L14.0939 31.5567L28.1599 16.7198L28.1471 16.7064Z" fill="#C2C2C2"/>
<path d="M12.3039 4.33008V6.89431L21.6121 16.7127L14.1131 24.6226L6.60784 16.7073L6.59767 16.6966L12.295 10.687H9.82204L4.11963 16.702L4.12471 16.7073L12.8709 25.9329L14.0941 27.2231L15.3375 25.9128L24.0507 16.7207L12.3039 4.33008Z" fill="#C2C2C2"/>
<path d="M19.9453 16.7061L15.3007 11.8016L14.0649 10.498L12.8494 11.7802L8.18066 16.7008L12.8519 21.628L14.0751 22.9182L15.316 21.6079L19.958 16.7195L19.9453 16.7061ZM14.0967 20.3272L10.6638 16.7061L10.6536 16.6954L14.0776 13.0837L17.5105 16.7048L14.0967 20.3272Z" fill="#C2C2C2"/>
</svg>
