<svg width="104" height="28" viewBox="0 0 104 28" fill="none" xmlns="http://www.w3.org/2000/svg">
<path fill-rule="evenodd" clip-rule="evenodd" d="M28.9487 24.0291L31.5005 0H35.7628L34.6832 10.0001C35.3282 9.10124 36.0315 8.39765 36.7933 7.88935C37.555 7.38104 38.3613 7.1269 39.2118 7.1269C39.8102 7.1269 40.3569 7.24728 40.8524 7.48807C41.3476 7.72885 41.7753 8.10606 42.1352 8.6197C42.495 9.13336 42.7754 9.78879 42.9763 10.586C43.1774 11.3833 43.2779 12.333 43.2779 13.4352C43.2779 14.8905 43.0839 16.2736 42.6959 17.5845C42.308 18.8954 41.7869 20.0484 41.1326 21.0437C40.4785 22.0387 39.7237 22.8281 38.8684 23.4113C38.0132 23.9944 37.1182 24.2861 36.1834 24.2861C35.4637 24.2861 34.8304 24.1281 34.2837 23.8125C33.7368 23.4968 33.2719 23.0822 32.8885 22.5685L32.8465 22.7291C32.6203 23.5056 31.9869 24.0291 31.2734 24.0291H28.9487ZM37.4732 10.899C37.1649 10.899 36.8447 11.0328 36.5128 11.3003C36.1811 11.5678 35.8609 11.9343 35.5524 12.3998C35.2441 12.8654 34.9567 13.4111 34.6902 14.0371C34.4237 14.6631 34.2019 15.3293 34.0242 16.0355L33.6036 19.92C33.8747 20.1768 34.1785 20.3588 34.515 20.4657C34.8515 20.5727 35.174 20.6263 35.4823 20.6263C35.9872 20.6263 36.4522 20.4336 36.8775 20.0484C37.3027 19.6632 37.6696 19.1576 37.9781 18.5315C38.2864 17.9055 38.5271 17.1912 38.7001 16.3887C38.8729 15.5861 38.9594 14.7675 38.9594 13.9328C38.9594 12.8734 38.8239 12.1029 38.5529 11.6213C38.2817 11.1398 37.922 10.899 37.4732 10.899ZM56.3451 24.0291H54.7126C53.5436 24.0291 52.5958 22.9417 52.5958 21.6001C52.5958 21.4891 52.6024 21.3782 52.6156 21.2683C52.0174 22.21 51.3536 22.9485 50.6247 23.4836C49.8955 24.0186 49.0917 24.2861 48.2131 24.2861C47.6896 24.2861 47.1849 24.1657 46.6988 23.9249C46.2128 23.6841 45.7829 23.3203 45.409 22.8333C45.0351 22.3464 44.736 21.7258 44.5117 20.9714C44.2873 20.2169 44.1751 19.3261 44.1751 18.2988C44.1751 16.79 44.4158 15.3587 44.8971 14.005C45.3786 12.6513 46.0516 11.4662 46.9161 10.4496C47.7808 9.43297 48.8066 8.62506 49.9937 8.0258C51.1808 7.42652 52.4846 7.1269 53.9054 7.1269C54.5971 7.1269 55.2981 7.18041 56.0085 7.28742C56.719 7.39443 57.4199 7.58706 58.1117 7.86528L56.3451 24.0291ZM49.9517 20.3535C50.2694 20.3535 50.5779 20.2169 50.877 19.9441C51.1761 19.6711 51.4588 19.2994 51.7253 18.8285C51.9916 18.3576 52.237 17.8066 52.4612 17.1752C52.6857 16.5438 52.8774 15.8697 53.0362 15.1527L53.5409 10.5459H53.2886C52.5781 10.5459 51.9309 10.7278 51.3467 11.0916C50.7624 11.4555 50.2602 11.9504 49.8395 12.5764C49.4189 13.2024 49.094 13.9301 48.865 14.7594C48.636 15.5888 48.5216 16.4743 48.5216 17.416C48.5216 17.951 48.5589 18.4058 48.6338 18.7804C48.7084 19.1549 48.809 19.4572 48.9351 19.6873C49.0614 19.9174 49.2108 20.086 49.3838 20.1929C49.5567 20.2999 49.7461 20.3535 49.9517 20.3535ZM59.093 24.0291L60.8597 7.38373H61.8091C63.3202 7.38373 64.5452 8.78945 64.5452 10.5235C64.5452 10.6221 64.5411 10.7206 64.533 10.8188C65.0938 9.68445 65.7014 8.81232 66.3558 8.20235C67.0101 7.5924 67.6876 7.28742 68.3887 7.28742C68.7813 7.28742 69.1691 7.38907 69.5525 7.5924L68.7673 12.1992C68.2905 11.9638 67.8373 11.8461 67.4072 11.8461C66.6875 11.8461 66.0497 12.2179 65.4936 12.9616C64.9374 13.7054 64.4864 14.9012 64.1404 16.5492L63.3553 24.0291H59.093ZM71.0106 20.4336V20.1608C71.0106 20.0538 71.0176 19.9013 71.0315 19.7033C71.0456 19.5053 71.069 19.2432 71.1016 18.9168C71.1344 18.5904 71.1789 18.1597 71.2349 17.6246L71.978 10.8188H70.8142C70.6367 10.8188 70.4872 10.7519 70.3657 10.6181C70.2441 10.4844 70.1834 10.2837 70.1834 10.0162C70.1834 10.0055 70.1927 9.91185 70.2113 9.73528C70.2302 9.55871 70.2488 9.37144 70.2675 9.17348C70.2861 8.97551 70.3048 8.79091 70.3237 8.6197C70.3423 8.44848 70.3515 8.35217 70.3515 8.33077L70.4548 7.41582L72.595 7.38373L72.9774 4.45445C73.1202 3.36112 73.9385 2.55221 74.9021 2.55221H77.1235L76.5908 7.41582H79.8436L79.8152 7.6816C79.6231 9.4729 78.2973 10.8188 76.7246 10.8188H76.2263L75.5252 17.3518C75.4785 17.7905 75.4434 18.1356 75.42 18.3871C75.3967 18.6386 75.378 18.8312 75.3641 18.965C75.3544 19.0559 75.345 19.1468 75.336 19.2378C75.3313 19.286 75.329 19.3154 75.329 19.3261C75.329 19.6365 75.392 19.896 75.5182 20.1047C75.6443 20.3134 75.8429 20.4176 76.1141 20.4176C76.2636 20.4176 76.3874 20.3989 76.4856 20.3615C76.551 20.3366 76.7824 20.2321 77.1797 20.0484L78.6097 22.8413C78.0302 23.323 77.4087 23.6841 76.7449 23.9249C76.0813 24.1657 75.4131 24.2861 74.7401 24.2861C74.1792 24.2861 73.6745 24.1977 73.2258 24.0211C72.7772 23.8446 72.3916 23.5878 72.0692 23.2507C71.7467 22.9136 71.4944 22.5097 71.3119 22.0387C71.1297 21.568 71.0293 21.0329 71.0106 20.4336ZM92.6863 11.4769C92.6863 12.2367 92.5556 12.9322 92.2938 13.5636C92.0322 14.195 91.5765 14.7541 90.9269 15.241C90.2772 15.7279 89.4033 16.1425 88.305 16.485C87.2066 16.8274 85.8258 17.0949 84.1618 17.2876C84.1805 18.4219 84.398 19.2512 84.8139 19.7756C85.2299 20.2999 85.8444 20.562 86.6576 20.562C87.0408 20.562 87.3727 20.5246 87.6531 20.4498C87.9335 20.3747 88.1787 20.2785 88.389 20.1608C89.6495 19.4554 91.1564 19.6949 92.2022 20.7672L92.378 20.9474C91.8639 21.5251 91.3615 22.0255 90.8707 22.4481C90.38 22.8708 89.8753 23.2186 89.3566 23.4915C88.8378 23.7643 88.2863 23.965 87.7021 24.0934C87.1179 24.2218 86.4799 24.2861 85.7883 24.2861C84.9283 24.2861 84.1385 24.1176 83.4187 23.7805C82.699 23.4434 82.0799 22.9672 81.5611 22.3519C81.0422 21.7365 80.6404 20.9955 80.3553 20.1286C80.0701 19.2619 79.9277 18.2988 79.9277 17.2394C79.9277 16.3512 80.0142 15.4844 80.187 14.639C80.36 13.7936 80.6076 12.9991 80.9301 12.2554C81.2526 11.5117 81.6476 10.8268 82.115 10.2008C82.5821 9.57477 83.108 9.03704 83.6922 8.5876C84.2764 8.13815 84.9166 7.78769 85.613 7.53622C86.3094 7.28475 87.0502 7.15901 87.8353 7.15901C88.611 7.15901 89.3004 7.28742 89.9033 7.54425C90.5062 7.80108 91.0134 8.13548 91.4246 8.54747C91.8358 8.95945 92.149 9.42228 92.3639 9.93594C92.5789 10.4496 92.6863 10.9632 92.6863 11.4769ZM87.583 10.5138C86.8633 10.5138 86.2323 10.8428 85.6901 11.501C85.1481 12.1591 84.7414 13.0606 84.4704 14.2057C85.377 14.0451 86.1107 13.8766 86.6716 13.7C87.2324 13.5235 87.667 13.3308 87.9756 13.1222C88.2839 12.9135 88.4919 12.6888 88.5994 12.448C88.707 12.2072 88.7607 11.9477 88.7607 11.6695C88.7607 11.3913 88.6672 11.1291 88.4803 10.883C88.2933 10.6368 87.9942 10.5138 87.583 10.5138ZM93.4155 24.0291L95.1821 7.38373H95.8619C97.5153 7.38373 98.8555 8.92165 98.8555 10.8188C99.4163 9.68445 100.024 8.81232 100.678 8.20235C101.332 7.5924 102.01 7.28742 102.711 7.28742C103.104 7.28742 103.492 7.38907 103.875 7.5924L103.09 12.1992C102.613 11.9638 102.16 11.8461 101.73 11.8461C101.01 11.8461 100.372 12.2179 99.8159 12.9616C99.2597 13.7054 98.8087 14.9012 98.4629 16.5492L97.6778 24.0291H93.4155Z" fill="#C4C4C4"/>
<path d="M17.9151 11.8772C21.3149 8.92145 28.3085 -1.6427 17.3809 0.218344C12.6213 0.984646 6.72101 5.46313 5.31256 11.0463C4.57775 9.55333 3.76693 8.10951 2.88418 6.72207C1.57286 4.8063 -1.02619 6.67726 0.430821 8.64776C4.55907 14.2856 7.42454 21.0729 7.42454 27.915C7.76452 24.5214 8.32375 19.9683 7.061 15.9178C7.52307 16.2763 7.55654 16.3032 7.87818 16.7403C10.1123 20.572 13.544 23.755 17.3809 25.2877C20.8778 26.7656 25.5402 25.8898 23.6461 19.9783C22.6262 16.7488 20.2463 13.9025 17.9151 11.8772Z" fill="#C4C4C4"/>
</svg>
