<svg width="116" height="29" viewBox="0 0 116 29" fill="none" xmlns="http://www.w3.org/2000/svg">
<path d="M24.0624 13.3412C24.7414 13.3284 25.4192 13.4052 26.0795 13.57C26.5677 13.691 27.0284 13.9102 27.4358 14.2152C27.7732 14.4758 28.0376 14.8257 28.2014 15.2286C28.3654 15.6514 28.4466 16.1041 28.44 16.5601C28.441 16.8218 28.4039 17.0821 28.3302 17.3322C28.2553 17.5824 28.1391 17.8171 27.9868 18.0257C27.8162 18.255 27.6124 18.4552 27.3825 18.619C27.108 18.8135 26.8102 18.9697 26.4967 19.0837C27.2486 19.2744 27.8054 19.5818 28.1671 20.006C28.5401 20.4663 28.7337 21.0556 28.7096 21.6574C28.7133 22.1437 28.6167 22.6252 28.4263 23.0693C28.2352 23.5087 27.9526 23.8982 27.5988 24.2096C27.2022 24.5543 26.7443 24.8142 26.2512 24.9746C25.6595 25.1658 25.0424 25.2581 24.4229 25.248H19.8564V13.3412H24.0624ZM22.5088 15.4073V18.3492H23.8821C24.1479 18.3518 24.4133 18.3297 24.6753 18.283C24.888 18.2486 25.0922 18.1709 25.2761 18.0543C25.4404 17.9456 25.5709 17.7898 25.6521 17.6057C25.7442 17.3799 25.7881 17.1359 25.7808 16.8907C25.7888 16.648 25.7545 16.4058 25.6796 16.1758C25.6173 15.9976 25.5085 15.841 25.3654 15.7237C25.2066 15.6004 25.0228 15.5167 24.8281 15.4788C24.5739 15.4249 24.3149 15.3998 24.0555 15.4037L22.5088 15.4073ZM24.3766 23.1587C24.6684 23.1693 24.9596 23.1226 25.2349 23.0211C25.4307 22.9447 25.6069 22.8224 25.7499 22.6636C25.8732 22.5213 25.9621 22.3503 26.0092 22.165C26.0555 21.9812 26.0792 21.792 26.0795 21.602C26.0823 21.4027 26.0545 21.2042 25.9971 21.014C25.9441 20.8427 25.8467 20.6899 25.7156 20.5725C25.56 20.4412 25.3791 20.3461 25.1851 20.2937C24.9136 20.223 24.6341 20.1905 24.3542 20.1972H22.5088V23.1605L24.3766 23.1587ZM37.6159 16.7728V25.2427H36.1052C35.974 25.2543 35.8429 25.2183 35.7343 25.1408C35.6257 25.0632 35.5463 24.9489 35.5095 24.8173L35.367 24.3276C35.2145 24.4818 35.0522 24.6251 34.8812 24.7565C34.7139 24.8853 34.5337 24.995 34.3438 25.0836C34.1447 25.1763 33.9371 25.2476 33.7241 25.2963C33.4853 25.3487 33.2419 25.3745 32.9979 25.3731C32.5922 25.3812 32.1895 25.2989 31.8168 25.1319C31.4831 24.9775 31.1869 24.7473 30.9499 24.4581C30.7089 24.1582 30.528 23.8112 30.4177 23.4375C30.2939 23.0197 30.2331 22.5844 30.2374 22.1471V16.7728H32.6683V22.1471C32.6477 22.4947 32.7449 22.8388 32.943 23.1194C33.0438 23.2369 33.169 23.3289 33.3091 23.3884C33.4493 23.4478 33.6006 23.4732 33.7516 23.4625C34.0109 23.4638 34.2671 23.4026 34.5 23.2838C34.7492 23.1589 34.9804 22.9983 35.1867 22.8066V16.7728H37.6159ZM47.4578 16.7728L43.1094 27.4392C43.0536 27.5854 42.9619 27.7136 42.8433 27.811C42.6908 27.9021 42.5155 27.9432 42.3403 27.9289H40.5206L42.0897 24.4992L38.8416 16.7728H40.991C41.1465 16.7621 41.3007 16.8083 41.427 16.9033C41.5255 16.9848 41.6024 17.0912 41.6502 17.2125L42.9858 20.8639C43.1116 21.1964 43.2137 21.5381 43.2914 21.8862L43.463 21.3625C43.5191 21.1885 43.5792 21.017 43.6433 20.8478L44.845 17.2125C44.8953 17.0832 44.9829 16.9733 45.0956 16.8979C45.2108 16.8157 45.3474 16.7721 45.487 16.7728H47.4578Z" fill="#C4C4C4"/>
<path d="M52.7233 13.3413C53.4253 13.3262 54.1253 13.4269 54.7971 13.6398C55.3225 13.8075 55.8088 14.0869 56.2254 14.4602C56.5918 14.7966 56.8755 15.2194 57.0528 15.6934C57.2342 16.1836 57.3251 16.7051 57.3206 17.2304C57.3261 17.7879 57.233 18.3416 57.046 18.864C56.8667 19.3518 56.579 19.7885 56.2065 20.1383C55.7897 20.5148 55.3021 20.7966 54.7747 20.9658C54.1105 21.1784 53.418 21.2792 52.7233 21.2643H51.3499V25.2427H48.689V13.3413H52.7233ZM52.7233 19.1821C53.4099 19.1821 53.9066 19.0105 54.2134 18.6674C54.5155 18.3242 54.6683 17.8452 54.6683 17.2376C54.6715 16.9844 54.6314 16.7326 54.5498 16.4941C54.4752 16.2755 54.353 16.078 54.1928 15.9168C54.0204 15.7489 53.8147 15.6226 53.5902 15.5468C53.3102 15.4533 53.0173 15.4086 52.7233 15.4146H51.3499V19.1893L52.7233 19.1821ZM62.4193 16.6424C62.9948 16.6345 63.5669 16.7369 64.1068 16.9445C64.5961 17.1336 65.0413 17.4284 65.4132 17.8095C65.7845 18.1983 66.0728 18.6642 66.2596 19.1768C66.4678 19.7554 66.5703 20.3694 66.5617 20.9873C66.5704 21.6097 66.4679 22.2285 66.2596 22.8121C66.0786 23.3276 65.7925 23.7963 65.4208 24.1857C65.0492 24.575 64.6009 24.8759 64.1068 25.0676C63.0123 25.4751 61.816 25.4751 60.7215 25.0676C60.229 24.8736 59.7802 24.5761 59.403 24.1936C59.0251 23.8025 58.7323 23.3313 58.5447 22.8121C58.3355 22.2287 58.233 21.6098 58.2425 20.9873C58.2331 20.3694 58.3356 19.7551 58.5447 19.1768C58.7329 18.662 59.0257 18.1956 59.403 17.8095C59.7797 17.4286 60.2288 17.1339 60.7215 16.9445C61.2649 16.7366 61.8404 16.6342 62.4193 16.6424ZM62.4193 23.4948C62.9789 23.4948 63.391 23.2892 63.6553 22.8782C63.9197 22.4671 64.0525 21.8422 64.0536 21.0033C64.0536 20.1693 63.9214 19.5455 63.657 19.1321C63.3927 18.7186 62.9807 18.5149 62.421 18.5208C61.8488 18.5208 61.4276 18.7246 61.1575 19.1321C60.8874 19.5396 60.7541 20.1633 60.7575 21.0033C60.7575 21.8374 60.8908 22.4623 61.1575 22.8782C61.4242 23.294 61.8448 23.4996 62.4193 23.4948ZM79.9933 16.7729L77.4663 25.2427H75.4904C75.3925 25.2455 75.2971 25.2105 75.2226 25.1444C75.1365 25.0547 75.0769 24.9412 75.0509 24.8174L73.8904 20.5941C73.832 20.4046 73.7805 20.2169 73.7359 20.0311C73.6913 19.8523 73.6518 19.6575 73.6157 19.4681C73.578 19.6575 73.5385 19.8488 73.4938 20.04C73.4492 20.2312 73.3977 20.4207 73.3411 20.6119L72.1634 24.8174C72.1415 24.9411 72.0773 25.0525 71.9826 25.1307C71.8879 25.2089 71.7691 25.2487 71.6484 25.2427H69.76L67.233 16.7729H69.178C69.3322 16.7671 69.4844 16.8108 69.6141 16.898C69.7245 16.9729 69.8083 17.0834 69.8527 17.2126L70.6698 21.0123C70.7362 21.3006 70.7963 21.5794 70.8501 21.8487C70.9016 22.1186 70.9497 22.3849 70.9909 22.6619C71.0595 22.3885 71.1316 22.1257 71.2072 21.8487C71.2827 21.5717 71.3651 21.3 71.4544 21.0123L72.4741 17.2054C72.5179 17.0769 72.6004 16.9666 72.7093 16.8908C72.8291 16.8045 72.9722 16.76 73.1179 16.7639H74.1994C74.3538 16.7587 74.506 16.803 74.6355 16.8908C74.7457 16.9659 74.8295 17.0763 74.8741 17.2054L75.8475 21.0123C75.9264 21.3006 76.0037 21.5806 76.0792 21.8523C76.1548 22.1257 76.2234 22.3992 76.287 22.678C76.3282 22.4063 76.3779 22.1418 76.4363 21.8612C76.4947 21.5806 76.5582 21.3054 76.632 21.0123L77.4904 17.2126C77.5346 17.0843 77.617 16.9741 77.7256 16.898C77.8451 16.8126 77.9875 16.7688 78.1324 16.7729H79.9933ZM83.171 21.4609C83.25 22.1686 83.4565 22.6816 83.7907 22.9997C84.1465 23.3277 84.6104 23.4993 85.0851 23.4787C85.3323 23.4841 85.5787 23.4479 85.8147 23.3715C86.0025 23.3081 86.185 23.2292 86.3607 23.1355L86.8001 22.8978C86.9298 22.8286 87.0733 22.7925 87.219 22.7924C87.3039 22.7868 87.3887 22.8038 87.4655 22.8416C87.5424 22.8794 87.6088 22.9369 87.6585 23.0087L88.3641 23.9166C88.1292 24.2003 87.8557 24.4466 87.5521 24.6476C87.2718 24.8307 86.9715 24.9783 86.6576 25.0872C86.3598 25.1923 86.0528 25.2665 85.7409 25.3089C85.4506 25.3485 85.1582 25.3688 84.8654 25.3696C84.318 25.3738 83.7744 25.2757 83.2603 25.0801C82.77 24.8927 82.3235 24.5991 81.9504 24.2186C81.5616 23.8124 81.2597 23.3251 81.0646 22.7888C80.8356 22.1576 80.7249 21.4866 80.7384 20.8121C80.7356 20.2627 80.8298 19.7174 81.0165 19.2036C81.1956 18.7043 81.4707 18.2484 81.825 17.8636C82.1792 17.4789 82.6051 17.1734 83.0766 16.9659C84.0856 16.5471 85.2059 16.5211 86.2319 16.8926C86.6639 17.0566 87.0568 17.3157 87.3838 17.6522C87.7155 17.9988 87.9724 18.4149 88.1375 18.8729C88.325 19.3963 88.417 19.9515 88.4087 20.5101C88.4104 20.6659 88.4023 20.8217 88.3847 20.9765C88.3749 21.0769 88.3457 21.1742 88.2988 21.2625C88.2595 21.3304 88.1989 21.3822 88.1272 21.409C88.0403 21.4389 87.9491 21.4528 87.8576 21.4502L83.171 21.4609ZM86.2302 19.99C86.2307 19.7914 86.2059 19.5937 86.1564 19.402C86.1093 19.2166 86.0263 19.0433 85.9126 18.8926C85.7935 18.7394 85.6419 18.6171 85.4697 18.5351C85.2601 18.4365 85.0318 18.3888 84.8019 18.3957C84.6041 18.3844 84.4062 18.4152 84.2203 18.4862C84.0343 18.5572 83.8642 18.6669 83.7203 18.8086C83.4344 19.1395 83.2544 19.5549 83.2053 19.9971L86.2302 19.99ZM92.3194 18.0794C92.5376 17.6659 92.8322 17.3014 93.1863 17.007C93.5081 16.7469 93.9052 16.6082 94.3125 16.6138C94.6311 16.5987 94.9455 16.6936 95.2069 16.8837L95.0507 18.746C95.038 18.8417 94.9915 18.929 94.9202 18.9909C94.847 19.0389 94.7612 19.062 94.6747 19.057C94.6318 19.057 94.5769 19.057 94.5031 19.0481L94.2902 19.0284L94.067 19.0034C93.9981 18.9952 93.9287 18.991 93.8593 18.9909C93.5476 18.9725 93.2409 19.0779 93.0009 19.2858C92.7665 19.5138 92.5831 19.7926 92.4636 20.1026V25.2427H90.0447V16.7729H91.4885C91.5901 16.7708 91.6916 16.7816 91.7906 16.8051C91.865 16.8232 91.9347 16.858 91.9949 16.9069C92.0507 16.9543 92.0939 17.0159 92.1203 17.0857C92.1528 17.1755 92.1775 17.2682 92.1941 17.3627L92.3194 18.0794ZM94.9803 23.9595C94.9787 23.7716 95.0144 23.5854 95.085 23.4126C95.1537 23.247 95.2529 23.097 95.3769 22.9711C95.6405 22.7059 95.9939 22.5595 96.3606 22.5636C96.5462 22.5613 96.7303 22.5991 96.9013 22.6744C97.0643 22.744 97.2133 22.8446 97.3408 22.9711C97.4692 23.0983 97.5711 23.2518 97.6399 23.4218C97.7087 23.5919 97.7431 23.7749 97.7408 23.9595C97.7424 24.1491 97.7068 24.337 97.6361 24.5117C97.5677 24.6794 97.4673 24.8309 97.3408 24.9568C97.214 25.0833 97.0647 25.1829 96.9013 25.2499C96.7296 25.3224 96.5458 25.3589 96.3606 25.3571C96.1725 25.3592 95.9858 25.3228 95.8112 25.2499C95.6492 25.1832 95.5015 25.0835 95.3769 24.9568C95.2522 24.8301 95.153 24.6788 95.085 24.5117C95.0143 24.337 94.9787 24.1491 94.9803 23.9595ZM101.571 17.688C101.725 17.5364 101.887 17.3944 102.057 17.2626C102.223 17.132 102.404 17.0211 102.594 16.9319C102.793 16.8385 103 16.7672 103.214 16.7193C103.452 16.6659 103.696 16.6401 103.94 16.6424C104.345 16.6336 104.747 16.7153 105.119 16.8819C105.45 17.0364 105.743 17.2653 105.978 17.5521C106.22 17.851 106.402 18.1982 106.512 18.5727C106.632 18.9899 106.69 19.4239 106.683 19.8595V25.2427H104.269V19.8595C104.289 19.5137 104.192 19.1717 103.995 18.8926C103.896 18.7721 103.771 18.6771 103.631 18.615C103.491 18.553 103.338 18.5257 103.186 18.5351C102.927 18.5339 102.671 18.5951 102.438 18.7139C102.189 18.8387 101.957 18.9994 101.751 19.1911V25.2427H99.3253V16.7729H100.833C100.964 16.7615 101.094 16.7974 101.203 16.8745C101.311 16.9516 101.391 17.0653 101.428 17.1965L101.571 17.688ZM115.888 17.0338V17.9561C115.892 18.0171 115.883 18.0781 115.864 18.1358C115.844 18.1935 115.814 18.2466 115.775 18.2921C115.664 18.3904 115.529 18.4553 115.385 18.4797L114.798 18.6191C114.829 18.7398 114.854 18.8621 114.872 18.9855C114.891 19.1156 114.9 19.2471 114.899 19.3787C114.906 19.7753 114.819 20.1675 114.645 20.5208C114.476 20.8578 114.237 21.1519 113.947 21.3822C113.632 21.6295 113.277 21.8154 112.899 21.9309C112.48 22.0581 112.044 22.1201 111.607 22.115C111.481 22.115 111.358 22.115 111.238 22.1025C111.119 22.095 111.001 22.0801 110.884 22.0578C110.811 22.0922 110.749 22.1458 110.702 22.2132C110.655 22.2806 110.626 22.3595 110.618 22.4421C110.618 22.511 110.639 22.5781 110.679 22.6333C110.718 22.6885 110.774 22.7286 110.838 22.7477C111.024 22.8201 111.219 22.8641 111.418 22.8782C111.658 22.9032 111.933 22.9193 112.238 22.9282C112.544 22.9372 112.857 22.955 113.176 22.9854C113.491 23.0153 113.804 23.0654 114.113 23.1355C114.403 23.2004 114.68 23.3165 114.932 23.4787C115.172 23.6376 115.372 23.8547 115.514 24.1114C115.671 24.4222 115.747 24.7704 115.734 25.1212C115.732 25.5111 115.64 25.8947 115.466 26.24C115.276 26.62 115.008 26.952 114.681 27.2123C114.299 27.5146 113.869 27.745 113.411 27.8932C112.852 28.0735 112.269 28.1603 111.684 28.1506C111.128 28.1602 110.573 28.0972 110.033 27.963C109.626 27.8621 109.238 27.6956 108.881 27.4697C108.599 27.294 108.363 27.0484 108.194 26.7548C108.051 26.5022 107.975 26.2149 107.974 25.9219C107.963 25.5793 108.075 25.2447 108.288 24.9836C108.53 24.7108 108.831 24.5035 109.167 24.3795C108.975 24.2609 108.814 24.0952 108.697 23.8969C108.574 23.665 108.514 23.4022 108.525 23.1373C108.526 23.0024 108.548 22.8686 108.589 22.7406C108.634 22.5946 108.701 22.457 108.788 22.3331C108.886 22.1916 109.002 22.0637 109.131 21.9524C109.279 21.825 109.443 21.7181 109.617 21.6342C109.213 21.4172 108.868 21.0983 108.613 20.7067C108.363 20.308 108.235 19.8401 108.245 19.3644C108.24 18.9652 108.328 18.5705 108.503 18.2152C108.676 17.8758 108.918 17.5804 109.214 17.3502C109.533 17.1027 109.893 16.9175 110.276 16.8033C110.707 16.6712 111.154 16.6062 111.603 16.6102C112.237 16.5979 112.865 16.7379 113.438 17.0195L115.888 17.0338ZM113.485 25.5519C113.489 25.4606 113.466 25.3701 113.42 25.2923C113.374 25.2145 113.306 25.1531 113.226 25.1158C113.012 25.0145 112.784 24.9499 112.551 24.9246C112.242 24.8829 111.932 24.8596 111.62 24.8549C111.277 24.846 110.934 24.8263 110.59 24.7923C110.449 24.89 110.323 25.0107 110.218 25.1498C110.121 25.2796 110.07 25.4396 110.072 25.6038C110.07 25.7169 110.096 25.8287 110.146 25.929C110.208 26.0392 110.3 26.1276 110.41 26.1828C110.569 26.2655 110.739 26.3222 110.915 26.3508C111.181 26.3959 111.45 26.4163 111.72 26.4116C112.007 26.4165 112.295 26.3944 112.578 26.3455C112.765 26.3154 112.947 26.2551 113.116 26.1668C113.232 26.1058 113.329 26.0107 113.394 25.8933C113.453 25.7894 113.488 25.6724 113.495 25.5519H113.485ZM111.596 20.5619C111.998 20.5619 112.283 20.4582 112.47 20.2473C112.656 20.0219 112.753 19.7312 112.741 19.4341C112.757 19.1381 112.66 18.8477 112.47 18.6263C112.29 18.4297 111.998 18.3332 111.596 18.3332C111.195 18.3332 110.91 18.4297 110.721 18.6263C110.532 18.8477 110.434 19.1381 110.45 19.4341C110.448 19.5871 110.471 19.7393 110.517 19.8845C110.56 20.018 110.631 20.14 110.724 20.242C110.825 20.3467 110.947 20.4272 111.081 20.4779C111.25 20.5394 111.428 20.5679 111.607 20.5619H111.596Z" fill="#C4C4C4"/>
<path d="M14.0169 23.7246C15.1613 23.7246 16.089 22.7588 16.089 21.5674C16.089 20.376 15.1613 19.4102 14.0169 19.4102C12.8725 19.4102 11.9448 20.376 11.9448 21.5674C11.9448 22.7588 12.8725 23.7246 14.0169 23.7246Z" stroke="#C4C4C4" stroke-miterlimit="10"/>
<path d="M11.4935 23.748C12.6379 23.748 13.5656 22.7822 13.5656 21.5908C13.5656 20.3994 12.6379 19.4336 11.4935 19.4336C10.3491 19.4336 9.42139 20.3994 9.42139 21.5908C9.42139 22.7822 10.3491 23.748 11.4935 23.748Z" stroke="#C4C4C4" stroke-miterlimit="10"/>
<path d="M17.5028 13.7773H1.34334C1.15372 13.7773 1 13.9374 1 14.1348V24.526C1 24.7235 1.15372 24.8835 1.34334 24.8835H17.5028C17.6924 24.8835 17.8461 24.7235 17.8461 24.526V14.1348C17.8461 13.9374 17.6924 13.7773 17.5028 13.7773Z" stroke="#C4C4C4" stroke-miterlimit="10"/>
<path d="M1.21094 17.9308H17.6571M1.21094 15.8379H17.6571H1.21094Z" stroke="#C4C4C4" stroke-miterlimit="10"/>
<path d="M10.2137 12.073H6.51074L17.1887 0L13.3776 9.93365H17.1887L6.51074 21.8673L10.2137 12.073Z" fill="#C4C4C4"/>
</svg>
