<svg width="137" height="28" viewBox="0 0 137 28" fill="none" xmlns="http://www.w3.org/2000/svg">
<path d="M81.0601 11.9328V1.23529C81.0601 0.540639 81.6008 0 82.2954 0C82.99 0 83.5307 0.540639 83.5307 1.23529V20.3892C83.5307 25.4876 80.3644 27.9969 75.9617 27.9969C70.9807 27.9969 68.0449 25.0223 68.0449 18.6887C68.0449 12.3561 70.8257 9.42134 75.8077 9.42134C78.2794 9.42242 80.1705 10.6965 81.0601 11.9328ZM81.0601 15.0614C81.0601 15.0614 79.5933 11.6625 75.9628 11.6625C72.4476 11.6625 70.5166 13.9403 70.5166 18.6897C70.5166 23.5167 72.4099 25.7579 75.9628 25.7579C78.9374 25.7579 81.0601 24.0584 81.0601 20.3903V15.0614Z" fill="#C2C2C2"/>
<path d="M95.352 9.42383C101.529 9.42383 102.728 14.3284 102.728 16.954C102.728 18.0751 102.728 19.4257 101.183 19.4257H89.9068C89.9068 23.25 92.1092 25.7216 95.7386 25.7216C97.9776 25.7216 99.2915 24.8719 100.373 24.0599C100.605 23.9059 100.758 23.8283 101.069 23.8283C101.687 23.8283 102.189 24.3313 102.189 24.9494C102.189 25.3727 101.996 25.6053 101.763 25.8369C101.184 26.4152 99.1763 27.9994 95.7386 27.9994C90.6025 27.9994 87.3975 25.181 87.3975 18.6912C87.3964 12.7452 90.3311 9.42383 95.352 9.42383ZM95.352 11.6639C91.9918 11.6639 90.1373 13.8265 89.9057 17.2631H100.294C100.295 14.4824 99.3303 11.6639 95.352 11.6639Z" fill="#C2C2C2"/>
<path d="M108.599 14.135C108.599 18.1909 118.757 16.6842 118.757 22.8628C118.757 26.378 115.862 27.9611 112.191 27.9611C109.025 27.9611 106.592 26.4555 105.587 25.1804C105.393 24.909 105.317 24.7152 105.317 24.4459C105.317 23.8277 105.819 23.3248 106.437 23.3248C106.668 23.3248 106.978 23.4023 107.287 23.7114C108.483 24.9079 110.029 25.6047 112.191 25.6047C114.393 25.6047 116.286 24.8702 116.286 22.8617C116.286 18.8844 106.128 20.4676 106.128 14.1339C106.128 10.9278 108.754 9.46094 112.036 9.46094C114.662 9.46094 116.71 10.3494 117.907 11.9326C118.022 12.0866 118.176 12.3181 118.176 12.666C118.176 13.2842 117.674 13.7861 117.057 13.7861C116.863 13.7861 116.554 13.7473 116.245 13.4382C115.202 12.4334 114.045 11.8163 112.036 11.8163C110.299 11.8173 108.599 12.358 108.599 14.135Z" fill="#C2C2C2"/>
<path d="M134.592 27.2258L127.757 18.4582L125.4 20.3515V26.5689C125.4 27.2635 124.86 27.8031 124.165 27.8031C123.47 27.8031 122.93 27.2624 122.93 26.5689V1.23529C122.93 0.540639 123.471 0 124.165 0C124.861 0 125.4 0.540639 125.4 1.23529V17.4157L134.515 9.96306C134.823 9.69274 135.132 9.65397 135.363 9.65397C136.059 9.65397 136.6 10.1946 136.6 10.8893C136.6 11.1983 136.484 11.585 136.097 11.893L129.763 16.9515L136.637 25.7945C136.869 26.0659 136.909 26.3352 136.909 26.5689C136.909 27.2635 136.368 27.8031 135.672 27.8031C135.248 27.8042 134.901 27.6103 134.592 27.2258Z" fill="#C2C2C2"/>
<path d="M8.37776 9.42383C11.9307 9.42383 13.9769 11.1998 14.6727 12.0883C14.9817 12.5137 15.0981 12.8227 15.0981 13.2858C15.0981 14.3284 14.2871 15.1393 13.2446 15.1393C12.6264 15.1393 12.1633 14.8701 11.8154 14.4834C11.3136 13.9428 10.3098 12.9778 8.37883 12.9778C5.67564 12.9778 4.20773 15.0639 4.20773 18.6922C4.20773 22.4002 5.67564 24.4476 8.37883 24.4476C10.1548 24.4476 11.3136 23.5601 12.2021 22.901C12.6275 22.5941 12.9743 22.5166 13.3609 22.5166C14.4034 22.5166 15.2144 23.3264 15.2144 24.37C15.2144 24.9107 15.0216 25.3738 14.5585 25.7981C13.67 26.6101 11.5462 28.0005 8.37991 28.0005C3.12753 28.0005 1.1107e-06 24.9882 1.1107e-06 18.6922C-0.00215172 12.3973 3.12537 9.42383 8.37776 9.42383Z" fill="#C2C2C2"/>
<path d="M22.013 11.7401C22.7464 10.62 24.3694 9.42242 26.9563 9.42242C32.2087 9.42242 33.444 12.7826 33.444 16.1427V25.7956C33.444 26.9544 32.5167 27.8042 31.3579 27.8042C30.1226 27.8042 29.2718 26.9544 29.2718 25.7956V16.9149C29.2718 14.7136 28.3833 13.2069 25.8739 13.2069C22.978 13.2069 22.0119 14.9064 22.0119 17.1841V25.7956C22.0119 26.9544 21.1234 27.8042 19.9258 27.8042C18.7293 27.8042 17.8408 26.9544 17.8408 25.7956V2.08609C17.8408 0.927272 18.767 0 19.9258 0C21.0847 0 22.0119 0.927272 22.0119 2.08609V11.7401H22.013Z" fill="#C2C2C2"/>
<path d="M40.1655 14.5978C39.78 14.8681 39.4709 14.9844 39.0067 14.9844C38.003 14.9844 37.192 14.1735 37.192 13.1687C37.192 12.7433 37.3471 12.2802 37.6939 11.8935C38.7752 10.697 40.7062 9.42188 44.0275 9.42188C48.8158 9.42188 51.674 11.7783 51.674 15.8708V25.7574C51.674 26.8763 50.7468 27.8036 49.6278 27.8036C48.5077 27.8036 47.5805 26.8763 47.5805 25.7574C46.538 27.4191 44.8385 27.9975 42.5219 27.9975C38.7375 27.9975 36.2271 25.6411 36.2271 22.1667C36.2271 18.574 39.123 16.7205 42.4832 16.7205H47.5417V16.0259C47.5417 14.2866 46.2676 13.1288 44.0275 13.1288C42.3281 13.1299 41.1305 13.9021 40.1655 14.5978ZM47.5417 21.0467V19.9654H43.0238C41.3244 19.9654 40.3982 20.7775 40.3982 22.1678C40.3982 23.6336 41.4407 24.5242 43.6032 24.5242C45.6495 24.5232 47.5417 23.2082 47.5417 21.0467Z" fill="#C2C2C2"/>
<path d="M56.697 6.7192C56.697 5.59915 57.6243 4.67188 58.7433 4.67188C59.8633 4.67188 60.7906 5.59915 60.7906 6.7192V9.96303H62.5278C63.4927 9.96303 64.266 10.7352 64.266 11.7013C64.266 12.6673 63.4938 13.4395 62.5278 13.4395H60.7906V22.7844C60.7906 23.6739 61.5628 24.1747 62.2574 24.1747C63.2623 24.1747 64.0732 24.9868 64.0732 25.9905C64.0732 26.9964 63.2623 27.8063 62.2574 27.8063C58.8208 27.8063 56.696 25.606 56.696 22.5539V13.4406H55.8085C54.8436 13.4406 54.0703 12.6684 54.0703 11.7023C54.0703 10.7363 54.8425 9.96411 55.8085 9.96411H56.697V6.7192Z" fill="#C2C2C2"/>
</svg>
