<svg width="150" height="28" viewBox="0 0 150 28" fill="none" xmlns="http://www.w3.org/2000/svg">
<path d="M19.0576 11.9016C22.6632 8.95619 30.0268 -1.65756 18.4989 0.221425C13.4714 0.983178 6.10776 5.85839 4.63504 11.4954C3.87329 9.97186 3.00997 8.54992 2.09587 7.12798C0.673927 5.19821 -0.900361 6.72171 0.623144 8.65149C5.13934 14.1194 7.74318 20.9143 8.03753 28C8.39302 24.5975 7.8344 20.4333 6.46325 16.3706C7.12343 16.5737 7.88518 16.6753 8.54537 16.6753C10.8814 20.5348 14.487 23.8358 18.4989 25.3593C22.2061 26.832 27.1321 25.9687 25.1008 20.027C24.0343 16.7768 21.5459 13.933 19.0576 11.9016ZM19.5654 1.59258C25.9641 0.881611 19.1083 8.85462 16.8739 10.3273C14.7917 8.95619 12.151 7.73738 9.61182 8.09287C11.44 5.70604 15.909 2.04963 19.5654 1.59258ZM9.56104 9.81951C11.2877 9.66716 13.1667 10.632 14.6394 11.6477C13.2175 12.3587 11.6939 12.7649 10.1197 12.9173C7.78362 12.9173 7.27578 10.0226 9.56104 9.81951ZM18.3974 22.2107C15.4011 21.3474 12.5573 18.9098 10.5259 16.4721C12.2018 16.1167 13.8776 15.4565 15.4011 14.5424C15.9598 14.2885 16.5184 13.8822 17.0262 13.5267C18.8036 15.1518 20.6826 17.3355 21.3936 19.8239C22.1046 22.5154 20.1748 22.7185 18.3974 22.2107Z" fill="#C2C2C2"/>
<path d="M43.5859 5.19925H34.8511C34.5464 5.19925 34.2925 5.45317 34.2925 5.75787H34.2417V19.4694C34.2417 19.7741 34.4956 20.028 34.8003 20.028C35.0542 20.028 35.3082 19.7741 35.3589 19.4694V13.2738H42.7733C43.078 13.2738 43.2304 13.0199 43.2304 12.766C43.2304 12.4613 43.0272 12.3089 42.7733 12.3089H35.3082V6.2657H43.5859C43.8906 6.2657 44.0429 6.01179 44.0429 5.75787C44.0429 5.60552 43.8906 5.40238 43.5859 5.19925ZM47.5978 4.48828H47.547C47.2931 4.48828 47.1407 4.69142 47.1407 4.94533V19.4186C47.1407 19.7233 47.3438 19.9265 47.5978 19.9265C47.9025 19.9265 48.0548 19.6725 48.0548 19.4186V5.0469C48.0548 4.69142 47.9025 4.48828 47.5978 4.48828ZM60.2429 9.6682C60.2429 9.3635 60.0397 9.16036 59.7858 9.16036C59.4811 9.16036 59.3288 9.41428 59.3288 9.6682V15.7114C59.3288 17.7428 57.7545 19.3678 55.8247 19.3171C53.7934 19.3171 52.6253 17.8951 52.6253 15.6607V9.6682C52.6253 9.3635 52.4222 9.16036 52.1683 9.16036C51.9651 9.16036 51.7112 9.41428 51.7112 9.6682V15.813C51.7112 18.3522 53.2347 20.2312 55.7231 20.2312C57.2466 20.282 58.6686 19.4186 59.3795 17.9967V19.571C59.3795 19.8757 59.6335 20.028 59.8366 20.028C60.1413 20.028 60.2936 19.7741 60.2936 19.571H60.2429V9.6682ZM68.6221 10.176C68.8253 10.176 69.0792 9.9729 69.0792 9.71898C69.0792 9.51585 68.8253 9.26193 68.6221 9.26193H65.4228V6.2657C65.4228 6.01179 65.1689 5.75787 64.9657 5.75787H64.9149C64.661 5.75787 64.5087 6.01179 64.5087 6.2657V9.26193H63.3914C63.1375 9.26193 62.9344 9.41428 62.9344 9.6682C62.9344 9.92212 63.1375 10.176 63.3914 10.176H64.5087V17.1842C64.5087 19.1647 65.7783 20.1296 67.251 20.1296C67.7588 20.1296 68.2667 20.028 68.7237 19.8757C68.8761 19.7741 69.0284 19.6218 69.0284 19.4186C69.0284 19.1647 68.8253 19.0124 68.6221 19.0124C68.2667 19.1139 67.8604 19.1647 67.4541 19.1647C66.2353 19.1647 65.4228 18.6061 65.4228 17.0826V10.176H68.6221ZM76.4936 10.176C76.7475 10.176 76.9506 9.9729 76.9506 9.71898C76.9506 9.51585 76.7475 9.26193 76.4936 9.26193H73.2942V6.2657C73.2942 6.01179 73.0911 5.75787 72.8372 5.75787H72.7864C72.5325 5.75787 72.3801 6.01179 72.3801 6.2657V9.26193H71.2629C71.0597 9.26193 70.8058 9.41428 70.8058 9.6682C70.8058 9.92212 71.0597 10.176 71.2629 10.176H72.3801V17.1842C72.3801 19.1647 73.6497 20.1296 75.1732 20.1296C75.6303 20.1296 76.1381 20.028 76.5951 19.8757C76.7983 19.7741 76.8998 19.6218 76.8998 19.4186C76.8998 19.1647 76.7475 19.0124 76.4936 19.0124C76.1381 19.1139 75.7318 19.1647 75.3256 19.1647C74.1068 19.1647 73.2942 18.6061 73.2942 17.0826V10.176H76.4936ZM83.4509 8.95723C80.7594 8.95723 78.7281 11.3948 78.7281 14.5942V14.645C78.7281 18.0475 80.9625 20.282 83.6541 20.282C85.076 20.3327 86.5487 19.7233 87.5136 18.5553C87.666 18.4537 87.7167 18.3014 87.7167 18.1998C87.7167 17.9459 87.4628 17.692 87.2597 17.692L86.955 17.7936C86.5521 18.2633 86.054 18.642 85.4937 18.9046C84.9333 19.1673 84.3236 19.3079 83.7048 19.3171C81.7243 19.3171 79.9469 17.7428 79.7437 15.102H87.666C87.8691 15.102 88.123 14.8481 88.123 14.5942C88.123 11.3948 86.2948 8.95723 83.4509 8.95723ZM79.6929 14.0864C79.8453 11.7503 81.4196 9.92212 83.4001 9.92212C85.6854 9.92212 86.9042 11.9027 87.0058 14.0864H79.6929ZM95.8929 9.10958C94.0647 9.26193 92.5412 10.5315 91.881 12.3597V9.71898C91.881 9.51585 91.6271 9.26193 91.4239 9.26193C91.1192 9.26193 90.9669 9.41428 90.9161 9.71898V19.6725C90.9161 19.9265 91.1192 20.1804 91.3731 20.1804C91.6271 20.1804 91.8302 19.9773 91.881 19.6725V15.7114C91.881 12.2074 93.76 10.5315 95.8929 10.2776H95.9437C96.2484 10.2776 96.4007 9.9729 96.4007 9.71898C96.4007 9.3635 96.1976 9.10958 95.8929 9.10958Z" fill="#C2C2C2"/>
<path d="M113.007 8.55001C112.347 8.55001 111.737 9.05784 111.585 9.76881L109.858 15.5581L108.183 9.76881C108.03 9.05784 107.37 8.49922 106.608 8.49922H106.456C105.694 8.49922 105.034 8.95628 104.882 9.76881L103.206 15.4566L101.581 9.71803C101.378 9.05784 100.819 8.49922 100.108 8.49922H100.057C99.2954 8.49922 98.7368 9.15941 98.7368 9.97195L98.8384 10.7337L101.428 18.7067C101.631 19.5192 102.292 20.0779 103.104 20.1286H103.206C103.968 20.1286 104.577 19.57 104.831 18.7575L106.507 13.0697L108.183 18.7575C108.386 19.57 109.046 20.1286 109.808 20.1286H109.96C110.773 20.1286 111.433 19.57 111.636 18.7067L114.226 10.6321L114.378 10.0227V9.97195C114.378 9.15941 113.769 8.55001 113.007 8.55001ZM120.472 8.55001C119.304 8.49922 118.187 8.75314 117.07 9.10863C116.613 9.31176 116.359 9.76881 116.359 10.3274C116.359 11.0892 116.917 11.6478 117.628 11.597C117.73 11.597 117.882 11.597 118.035 11.4955C118.695 11.2923 119.406 11.1907 120.117 11.1907C121.64 11.1907 122.402 11.9017 122.402 13.2729V13.4252C121.589 13.1205 120.675 13.019 119.812 13.019C117.324 13.019 115.597 14.187 115.597 16.6754C115.597 18.8591 117.273 20.1286 119.203 20.1286C120.421 20.1794 121.589 19.6208 122.402 18.7067C122.453 19.5192 123.062 20.0779 123.824 20.0779C124.636 20.0779 125.297 19.3669 125.297 18.5036V13.4252C125.347 12.1556 124.941 10.8353 124.129 9.87038C123.265 9.05784 122.097 8.55001 120.472 8.55001ZM122.453 15.9136C122.453 17.1324 121.437 17.8942 120.066 17.8434C119.101 17.8434 118.441 17.3356 118.441 16.4722V16.4215C118.441 15.4566 119.253 14.8472 120.523 14.8472C121.132 14.8472 121.843 15.0503 122.453 15.3042V15.9136ZM135.606 8.49922C134.996 8.49922 134.387 8.90549 134.234 9.61646L131.898 16.1675L129.664 9.66724C129.461 8.95628 128.902 8.49922 128.191 8.49922C127.429 8.49922 126.82 9.10863 126.719 9.97195C126.719 10.2259 126.82 10.4798 126.922 10.7337L130.172 18.7067C130.375 19.5192 131.035 20.0779 131.848 20.1286H132.051C132.762 20.0779 133.473 19.57 133.777 18.7575L136.926 10.7845L137.078 10.0227V9.97195C137.078 9.15941 136.469 8.49922 135.606 8.49922ZM143.477 8.44844C140.379 8.44844 138.246 11.0892 138.246 14.2885V14.7964C138.348 17.8942 140.887 20.281 143.782 20.1286C145.102 20.1286 146.372 19.6716 147.438 18.7575C147.743 18.5036 147.844 18.1989 147.844 17.8434V17.7926C147.844 17.0816 147.337 16.523 146.676 16.523C146.423 16.523 146.169 16.5738 145.965 16.7769C145.374 17.2866 144.613 17.5581 143.833 17.5387C142.563 17.5895 141.446 16.6754 141.293 15.3042H147.235C147.997 15.2534 148.606 14.5425 148.555 13.7299V13.476C148.555 10.7337 146.27 8.34687 143.477 8.44844ZM141.192 13.4252C141.446 11.9525 142.258 11.0384 143.477 11.0384C144.696 11.0384 145.508 12.0033 145.661 13.4252H141.192Z" fill="#C2C2C2" stroke="#C2C2C2"/>
</svg>
