<svg width="148" height="28" viewBox="0 0 148 28" fill="none" xmlns="http://www.w3.org/2000/svg">
<path d="M39.4443 22.7071V28.0003H36.1245V10.769H39.4443V11.5934C40.4329 10.9505 41.5848 10.6037 42.764 10.5938C46.5337 10.5938 49.3057 13.5907 49.3057 17.1613C49.3057 20.7319 46.5596 23.7289 42.764 23.7289C41.5797 23.7308 40.4225 23.3747 39.4443 22.7071ZM39.4443 15.59V18.6367C39.7061 19.1943 40.1131 19.6712 40.6225 20.0176C41.132 20.3639 41.7252 20.5669 42.34 20.6053C42.9548 20.6437 43.5686 20.5161 44.1172 20.2359C44.6658 19.9557 45.129 19.5331 45.4582 19.0125C45.7875 18.4918 45.9707 17.8923 45.9887 17.2765C46.0067 16.6608 45.8589 16.0515 45.5606 15.5125C45.2624 14.9735 44.8247 14.5246 44.2934 14.2128C43.7622 13.901 43.1568 13.7377 42.5408 13.7401C41.9039 13.7311 41.2771 13.8994 40.7303 14.226C40.1835 14.5527 39.7382 15.0249 39.4443 15.59Z" fill="#C2C2C2"/>
<path d="M51.1038 7.29694C51.0929 7.04565 51.1336 6.79479 51.2233 6.5598C51.3129 6.32481 51.4497 6.11064 51.6252 5.93047C51.8008 5.75029 52.0113 5.60793 52.2438 5.51212C52.4764 5.4163 52.7261 5.36908 52.9776 5.37334C53.2325 5.36891 53.4858 5.41547 53.7225 5.51027C53.9592 5.60507 54.1746 5.74621 54.3561 5.9254C54.5375 6.10459 54.6813 6.31822 54.779 6.55374C54.8767 6.78927 54.9264 7.04195 54.9252 7.29694C54.9198 7.80978 54.7122 8.29977 54.3475 8.66034C53.9828 9.02091 53.4904 9.22291 52.9776 9.22239C52.7275 9.22123 52.4801 9.17025 52.2499 9.07243C52.0197 8.97461 51.8113 8.83191 51.6368 8.65267C51.4624 8.47342 51.3254 8.26121 51.2339 8.02844C51.1424 7.79567 51.0981 7.547 51.1038 7.29694ZM51.3048 10.7698H54.6762V23.5305H51.3048V10.7698Z" fill="#C2C2C2"/>
<path d="M56.6716 17.1117C56.6648 16.2529 56.8299 15.4013 57.157 14.6072C57.484 13.813 57.9666 13.0922 58.5762 12.4872C59.1859 11.8822 59.9103 11.4052 60.707 11.0842C61.5036 10.7632 62.3564 10.6047 63.2152 10.618C64.3894 10.6186 65.5451 10.91 66.5792 11.4663V10.7673H69.8768V22.8033C69.8768 26.123 67.0034 27.923 63.4088 27.923C61.061 27.923 58.8128 27.224 57.3392 26.0787L58.7132 23.707C60.1137 24.6042 61.7457 25.0727 63.4088 25.0551C65.7308 25.0551 66.4556 24.133 66.5552 22.6336C65.555 23.2734 64.3951 23.6191 63.2078 23.6313C59.3864 23.6277 56.6716 20.7819 56.6716 17.1117ZM66.5792 18.5337V15.6879C66.3002 15.0942 65.859 14.5914 65.3065 14.2376C64.7541 13.8839 64.1128 13.6936 63.4568 13.6887C63.0038 13.6843 62.5544 13.7695 62.1344 13.9394C61.7144 14.1093 61.3322 14.3605 61.0096 14.6786C60.6871 14.9967 60.4306 15.3754 60.2549 15.793C60.0792 16.2106 59.9877 16.6587 59.9858 17.1117C59.9858 19.0833 61.4834 20.4573 63.4328 20.4573C64.0869 20.4743 64.732 20.3018 65.2903 19.9605C65.8485 19.6192 66.2962 19.1237 66.5792 18.5337Z" fill="#C2C2C2"/>
<path d="M71.8776 17.1117C71.8709 16.2529 72.0359 15.4013 72.363 14.6072C72.6901 13.813 73.1726 13.0922 73.7823 12.4872C74.3919 11.8822 75.1164 11.4052 75.913 11.0842C76.7097 10.7632 77.5624 10.6047 78.4212 10.618C79.5979 10.6176 80.7563 10.9091 81.7926 11.4663V10.7673H85.0884V22.8033C85.0884 26.123 82.2168 27.923 78.6222 27.923C76.2744 27.923 74.0263 27.224 72.5527 26.0787L73.9267 23.707C75.327 24.6044 76.9591 25.0731 78.6222 25.0551C80.9442 25.0551 81.669 24.133 81.7686 22.6336C80.7683 23.2731 79.6084 23.6188 78.4212 23.6313C74.5998 23.6277 71.8776 20.7819 71.8776 17.1117ZM81.7926 18.5337V15.6879C81.5135 15.0943 81.0722 14.5916 80.5198 14.2379C79.9673 13.8842 79.3262 13.6938 78.6702 13.6887C78.2172 13.6843 77.7678 13.7695 77.3478 13.9394C76.9279 14.1093 76.5456 14.3605 76.2231 14.6786C75.9005 14.9967 75.644 15.3754 75.4683 15.793C75.2926 16.2106 75.2011 16.6587 75.1992 17.1117C75.1992 19.0833 76.6968 20.4573 78.6462 20.4573C79.3003 20.4741 79.9453 20.3015 80.5035 19.9602C81.0617 19.6189 81.5094 19.1235 81.7926 18.5337Z" fill="#C2C2C2"/>
<path d="M89.9319 10.7676L93.2793 19.2827L96.7245 10.7676H100.229L92.8791 27.9989H89.7586L91.6029 23.4047L86.2378 10.7676H89.9319Z" fill="#C2C2C2"/>
<path d="M99.5923 10.7676H103.163L106.416 19.3842L109.638 10.7676H113.142L108.023 23.5283H104.664L99.5923 10.7676Z" fill="#C2C2C2"/>
<path d="M113.378 17.0617C113.378 13.4672 115.949 10.4941 119.97 10.4941C123.692 10.4941 126.519 13.2919 126.587 16.9676C126.613 17.2837 126.613 17.6014 126.587 17.9175H116.525C116.624 19.7156 118.347 20.8886 120.195 20.8886C121.718 20.8886 122.617 20.4644 123.666 19.5976L125.49 21.5212C124.014 23.0686 122.539 23.7934 120.195 23.7934C115.876 23.7805 113.378 20.5585 113.378 17.0617ZM116.698 15.5383H123.142C122.818 14.3414 121.667 13.2919 119.92 13.2919C117.897 13.2919 117.049 14.3155 116.698 15.5383Z" fill="#C2C2C2"/>
<path d="M127.284 22.1561L128.916 19.5077C130.381 20.4841 132.099 21.0134 133.859 21.0311C135.534 21.0311 136.382 20.6069 136.382 19.8839C136.382 19.4081 135.982 19.0595 135.134 18.8843L131.629 18.1355C129.058 17.5822 127.884 16.3631 127.884 14.3658C127.884 12.243 129.682 10.4688 133.404 10.4688C135.65 10.4688 137.645 11.1198 139.021 11.9682L137.498 14.5151C136.375 13.9157 134.877 13.2666 133.302 13.2666C131.88 13.2666 131.056 13.617 131.056 14.2643C131.056 14.6904 131.356 14.9652 132.179 15.1145L135.13 15.6678C138.326 16.2912 139.556 17.715 139.556 19.6386C139.556 22.4051 136.79 23.8584 133.761 23.8584C131.486 23.9023 129.244 23.313 127.284 22.1561Z" fill="#C2C2C2"/>
<path d="M140.221 10.7671H142.118V7.24638L145.438 5.09961V10.7671H147.386V13.6645H145.44V23.5297H142.12V13.6645H140.219V10.7671H140.221Z" fill="#C2C2C2"/>
<path d="M27.8121 12.8213C27.7567 12.0113 27.6239 11.2084 27.4155 10.4237C26.4657 6.91951 24.4647 4.16228 21.4142 2.19441C19.4928 0.94481 17.2858 0.203015 14.9997 0.0384261C14.0392 -0.0317259 13.0742 -0.00577695 12.1189 0.115887C11.1125 0.249092 10.1232 0.489606 9.16802 0.83332C6.62438 1.75085 4.40439 3.39186 2.78111 5.55448C1.15783 7.7171 0.202059 10.307 0.0313531 13.0057C0 13.5018 0 14.0016 0 14.4996V26.6056C0 26.9201 0.124941 27.2217 0.347338 27.4441C0.569735 27.6665 0.871369 27.7915 1.18589 27.7915H5.86303C6.15573 27.7897 6.43759 27.6805 6.65516 27.4847C6.87273 27.2889 7.01087 27.02 7.04339 26.7291C7.07416 26.6155 7.09028 26.4983 7.09134 26.3806V26.1002C7.08858 26.0788 7.08858 26.0571 7.09134 26.0357V26.0043C7.12324 26.0128 7.15327 26.0272 7.17986 26.0468C8.92933 27.0142 10.8669 27.5929 12.8603 27.7435C13.6588 27.8026 14.4608 27.7945 15.2579 27.7195C17.1344 27.5467 18.9556 26.9915 20.6095 26.0882C22.2633 25.1849 23.7146 23.9525 24.8741 22.467C26.5268 20.388 27.5381 17.8725 27.7844 15.2281C27.8678 14.4284 27.8771 13.6227 27.8121 12.8213ZM16.4143 20.5563C16.406 20.5989 16.383 20.6372 16.3493 20.6646C16.3155 20.6919 16.2733 20.7064 16.2298 20.7057H11.6191C11.5757 20.7064 11.5334 20.6919 11.4997 20.6646C11.4659 20.6372 11.4429 20.5989 11.4347 20.5563V20.5268V20.3552C11.4336 20.1436 11.4572 19.9326 11.5047 19.7263C11.5343 19.6563 11.5527 19.5733 11.5822 19.4958C11.6117 19.4183 11.6412 19.3464 11.6707 19.2708C11.7002 19.1952 11.7482 19.1269 11.7888 19.0624L11.8552 18.9628C11.8985 18.8983 11.946 18.8367 11.9972 18.7784C12.0507 18.712 12.1041 18.6548 12.1576 18.5939C12.4351 18.321 12.7723 18.1165 13.1425 17.9964C12.8236 17.8227 12.5715 17.5479 12.426 17.2152C12.2805 16.8826 12.2498 16.5109 12.3387 16.1589C12.4277 15.8068 12.6313 15.4944 12.9174 15.2708C13.2035 15.0471 13.5558 14.9251 13.9189 14.9238C14.3525 14.9271 14.7675 15.0998 15.0753 15.4051C15.2535 15.5845 15.3877 15.8027 15.4672 16.0426C15.5468 16.2826 15.5696 16.5377 15.5338 16.788C15.4981 17.0383 15.4047 17.2768 15.2612 17.4849C15.1176 17.693 14.9277 17.8649 14.7065 17.9872C15.2045 18.1513 15.6379 18.4688 15.9446 18.8941C16.2513 19.3194 16.4157 19.8309 16.4143 20.3552C16.4143 20.4216 16.4143 20.4936 16.4143 20.5563ZM24.3632 10.5122H3.49311C3.45399 10.5119 3.41549 10.5024 3.38078 10.4843C3.34607 10.4663 3.31614 10.4403 3.29346 10.4084C3.27077 10.3765 3.25597 10.3397 3.25028 10.301C3.24459 10.2623 3.24817 10.2228 3.26072 10.1858C4.03946 7.97888 5.48355 6.06786 7.39394 4.71613C9.30434 3.36439 11.587 2.6385 13.9272 2.6385C16.2675 2.6385 18.5501 3.36439 20.4605 4.71613C22.3709 6.06786 23.815 7.97888 24.5938 10.1858C24.6063 10.2227 24.6099 10.262 24.6043 10.3006C24.5987 10.3391 24.584 10.3758 24.5616 10.4077C24.5391 10.4395 24.5094 10.4656 24.4749 10.4837C24.4405 10.5019 24.4022 10.5117 24.3632 10.5122Z" fill="#C2C2C2"/>
</svg>
