<svg width="59" height="28" viewBox="0 0 59 28" fill="none" xmlns="http://www.w3.org/2000/svg">
<path d="M32.336 13.9409H23.7215C23.7503 14.8157 24.0929 15.6509 24.6866 16.2941C24.971 16.5804 25.3114 16.8049 25.6866 16.9536C26.0618 17.1022 26.4637 17.1718 26.867 17.1579C27.5581 17.1579 28.13 16.997 28.5828 16.6634C29.0296 16.3358 29.536 15.7281 30.1019 14.8404L32.4432 16.1511C32.0857 16.7647 31.6985 17.2949 31.2994 17.7417C30.8943 18.1766 30.4653 18.5341 30.0006 18.826C29.5383 19.1052 29.0361 19.3121 28.5113 19.4396C27.9415 19.575 27.3574 19.641 26.7717 19.6362C24.9785 19.6362 23.5368 19.0643 22.4526 17.9085C21.3683 16.7528 20.8262 15.2158 20.8262 13.2975C20.8262 11.397 21.3504 9.86002 22.4049 8.6864C23.4653 7.5247 24.8713 6.94683 26.6228 6.94683C28.3921 6.94683 29.7862 7.50683 30.8168 8.63278C31.8355 9.75278 32.3479 11.3017 32.3479 13.2855L32.336 13.9409ZM29.4823 11.6711C29.0951 10.1877 28.1657 9.44896 26.6823 9.44896C26.2078 9.44277 25.7395 9.55835 25.3223 9.78468C24.9051 10.011 24.5529 10.3405 24.2994 10.7417C24.1206 11.0291 23.9879 11.3427 23.9062 11.6711H29.4823ZM34.4032 7.28045H37.1794V8.35279C37.568 7.91274 38.027 7.5403 38.5377 7.25066C38.9833 7.03722 39.4735 6.93307 39.9674 6.94683C40.7002 6.94683 41.4628 7.18513 42.2611 7.66172L40.9921 10.1996C40.5491 9.85107 40.0065 9.65282 39.4432 9.63364C37.936 9.63364 37.1794 10.7775 37.1794 13.0651V19.2966H34.4032V7.28045ZM46.044 7.28045V19.2966H43.2679V7.28045H46.044ZM42.8508 4.7247C42.8508 4.24215 43.0296 3.81917 43.3811 3.47364C43.7385 3.11619 44.1555 2.93747 44.65 2.93747C45.1504 2.93747 45.5794 3.11619 45.9368 3.47364C46.2883 3.81321 46.467 4.23619 46.467 4.73662C46.467 5.243 46.2883 5.66598 45.9308 6.02343C45.5913 6.38087 45.1623 6.55364 44.6619 6.55364C44.1615 6.55364 43.7325 6.37491 43.3811 6.01747C43.0236 5.66598 42.8449 5.23704 42.8449 4.7247H42.8508ZM51.4594 9.86598V19.3026H48.6713V9.86598H47.6823V7.28045H48.6713V5.08215C48.6713 3.56896 48.9334 2.50258 49.4576 1.87704C50.1845 1.00726 51.233 0.566406 52.6151 0.566406C53.1096 0.566406 53.7291 0.715342 54.4798 1.0013V3.83704H52.7164C52.1325 3.83704 51.9002 3.83704 51.6798 4.13492C51.507 4.47449 51.4594 4.77832 51.4594 5.7613V7.28045H56.1062V9.86598H51.4594Z" fill="#C2C2C2"/>
<path d="M58.4238 7.27852V19.2947H55.6476V7.27852H58.4238ZM55.2306 4.72278C55.2306 4.24023 55.4093 3.81725 55.7608 3.47172C56.1182 3.11427 56.5352 2.93555 57.0297 2.93555C57.5301 2.93555 57.9591 3.11427 58.3106 3.47172C58.668 3.81129 58.8467 4.23427 58.8467 4.7347C58.8467 5.24108 58.668 5.66406 58.3106 6.0215C57.971 6.37895 57.5421 6.55172 57.0416 6.55172C56.5412 6.55172 56.1123 6.37299 55.7608 6.01555C55.4033 5.66406 55.2246 5.23512 55.2246 4.72278H55.2306Z" fill="#C2C2C2"/>
<path fill-rule="evenodd" clip-rule="evenodd" d="M7.88638 9.14381C9.82255 10.9906 12.6523 13.8085 12.6523 13.8085C12.6523 13.8085 19.146 5.32509 25.294 1.23828L25.7706 2.66211C23.5247 4.22892 16.7749 12.8374 14.1298 20.451C14.1298 20.451 7.08212 12.7361 5.7417 10.9787L7.88638 9.14381Z" fill="#C2C2C2"/>
<path d="M13.9929 26.379C18.3597 26.379 22.2023 24.1152 24.4006 20.6956H26.295C24.947 23.171 22.8832 25.1819 20.3736 26.465C17.8639 27.7482 15.0254 28.244 12.2294 27.8876C9.43342 27.5311 6.81012 26.339 4.70275 24.4671C2.59538 22.5953 1.1021 20.131 0.418266 17.3965C-0.265563 14.6621 -0.108088 11.7849 0.87009 9.14146C1.84827 6.49799 3.60159 4.21134 5.90066 2.58069C8.19973 0.950035 10.9375 0.0513216 13.7557 0.00213286C16.5739 -0.0470559 19.3413 0.755571 21.6959 2.305L20.5878 3.53819C18.9654 2.51537 17.1274 1.88371 15.2189 1.69308C13.3105 1.50245 11.3839 1.75807 9.59117 2.43976C7.79847 3.12144 6.18877 4.21053 4.88917 5.62104C3.58958 7.03154 2.63566 8.72484 2.10273 10.5673C1.56981 12.4097 1.47247 14.3507 1.8184 16.2372C2.16433 18.1237 2.94406 19.9039 4.09603 21.4374C5.248 22.9708 6.74066 24.2155 8.45617 25.0731C10.1717 25.9307 12.0631 26.3778 13.981 26.379H13.9929Z" fill="#C2C2C2"/>
</svg>
